<?xml version="1.0" standalone="no"?>
<!DOCTYPE svg PUBLIC "-//W3C//DTD SVG 20010904//EN"
 "http://www.w3.org/TR/2001/REC-SVG-20010904/DTD/svg10.dtd">
<svg version="1.0" xmlns="http://www.w3.org/2000/svg"
 width="700.000000pt" height="700.000000pt" viewBox="0 0 700.000000 700.000000"
 preserveAspectRatio="xMidYMid meet">
<metadata>
Created by potrace 1.11, written by Peter Selinger 2001-2013
</metadata>
<g transform="translate(0.000000,700.000000) scale(0.100000,-0.100000)"
fill="#000000" stroke="none">
<path d="M2978 4754 c-2 -1 -41 -5 -88 -8 -46 -4 -93 -9 -105 -11 -11 -2 -47
-7 -80 -10 -96 -9 -339 -40 -440 -55 -33 -5 -76 -12 -95 -15 -19 -2 -93 -14
-165 -24 -71 -11 -150 -23 -175 -26 -55 -7 -376 -62 -445 -75 -41 -8 -212 -40
-300 -56 -54 -9 -89 -16 -350 -69 -335 -67 -339 -68 -366 -106 -20 -28 -21
-39 -16 -162 7 -173 9 -182 73 -319 34 -71 74 -182 103 -285 74 -257 130 -386
216 -495 132 -168 409 -292 635 -284 203 7 332 114 367 306 4 19 6 131 5 249
l-2 213 27 -6 c139 -34 194 -117 258 -385 19 -75 28 -107 55 -184 80 -232 185
-374 374 -508 253 -179 579 -235 930 -159 99 22 155 50 209 106 53 55 116 181
132 265 14 72 49 201 68 253 37 98 73 129 217 185 69 27 161 60 205 74 155 49
642 222 700 247 11 5 76 32 145 61 137 56 233 97 325 139 188 87 360 167 510
240 107 52 182 83 203 83 52 0 53 -1 200 -283 165 -318 163 -316 213 -325 44
-9 106 102 125 222 12 81 2 99 -129 234 -67 69 -147 157 -177 196 -75 96 -105
114 -194 118 -78 3 -201 -19 -426 -79 -74 -20 -189 -50 -255 -67 -66 -17 -185
-49 -265 -71 -222 -62 -284 -78 -300 -82 -8 -2 -35 -10 -60 -17 -25 -7 -49
-13 -55 -15 -37 -8 -498 -145 -625 -186 -85 -27 -173 -55 -195 -62 -38 -12
-45 -10 -135 27 -182 76 -448 157 -635 193 -22 4 -44 8 -50 10 -30 7 -139 23
-270 39 -22 3 -56 7 -75 10 -85 11 -193 16 -460 20 -383 7 -478 12 -514 26
-17 7 -78 48 -136 92 -86 64 -296 183 -370 209 -19 7 -11 15 20 22 14 2 165
45 335 95 365 106 792 224 995 276 340 86 405 91 511 37 94 -48 167 -113 516
-457 111 -110 213 -203 225 -208 59 -22 136 44 164 141 30 102 1 173 -89 219
-111 56 -434 269 -531 350 -48 40 -187 102 -266 118 -65 13 -215 26 -222 19z
m-2123 -648 c215 -62 419 -165 515 -259 69 -67 116 -164 140 -287 5 -25 11
-55 14 -67 20 -96 24 -375 7 -484 -12 -71 -41 -108 -89 -110 -297 -13 -466 67
-618 293 -145 216 -219 465 -222 753 -2 144 1 155 58 179 41 17 89 12 195 -18z
m1800 -461 c332 -22 614 -117 774 -261 84 -75 116 -160 128 -333 14 -213 7
-395 -19 -484 -22 -76 -69 -135 -113 -143 -86 -15 -318 -21 -373 -10 -15 3
-45 8 -67 11 -137 19 -322 97 -435 183 -208 158 -337 412 -366 723 -13 142
-11 171 13 219 49 99 132 117 458 95z"/>
</g>
</svg>
